<mxfile host="app.diagrams.net" modified="2023-10-26T08:33:40.685Z" agent="Mozilla/5.0 (Windows NT 10.0; Win64; x64) AppleWebKit/537.36 (KHTML, like Gecko) Chrome/118.0.0.0 Safari/537.36" etag="zfRe3fD9Sa1fN7RHk_gr" version="22.0.8" type="device">
  <diagram name="페이지-1" id="jQG6CiDRZARMOXs2KrAY">
    <mxGraphModel dx="3033" dy="1203" grid="1" gridSize="10" guides="1" tooltips="1" connect="1" arrows="1" fold="1" page="1" pageScale="1" pageWidth="827" pageHeight="1169" math="0" shadow="0">
      <root>
        <mxCell id="0" />
        <mxCell id="1" parent="0" />
        <mxCell id="OHqfdX3Yxwpu9wRYlfVo-46" style="rounded=0;orthogonalLoop=1;jettySize=auto;html=1;exitX=0;exitY=1;exitDx=0;exitDy=0;entryX=1;entryY=0;entryDx=0;entryDy=0;endArrow=ERzeroToMany;endFill=0;startArrow=ERone;startFill=0;" edge="1" parent="1" source="OHqfdX3Yxwpu9wRYlfVo-2" target="OHqfdX3Yxwpu9wRYlfVo-27">
          <mxGeometry relative="1" as="geometry" />
        </mxCell>
        <mxCell id="OHqfdX3Yxwpu9wRYlfVo-2" value="&lt;font style=&quot;font-size: 20px;&quot;&gt;회원&lt;/font&gt;" style="rounded=0;whiteSpace=wrap;html=1;" vertex="1" parent="1">
          <mxGeometry x="336" y="180" width="90" height="90" as="geometry" />
        </mxCell>
        <mxCell id="OHqfdX3Yxwpu9wRYlfVo-10" style="edgeStyle=orthogonalEdgeStyle;rounded=0;orthogonalLoop=1;jettySize=auto;html=1;exitX=1;exitY=0.5;exitDx=0;exitDy=0;entryX=0;entryY=0.5;entryDx=0;entryDy=0;endArrow=none;endFill=0;" edge="1" parent="1" source="OHqfdX3Yxwpu9wRYlfVo-4" target="OHqfdX3Yxwpu9wRYlfVo-2">
          <mxGeometry relative="1" as="geometry" />
        </mxCell>
        <mxCell id="OHqfdX3Yxwpu9wRYlfVo-4" value="아이디" style="ellipse;whiteSpace=wrap;html=1;aspect=fixed;fontSize=15;fontStyle=4" vertex="1" parent="1">
          <mxGeometry x="216" y="197.5" width="55" height="55" as="geometry" />
        </mxCell>
        <mxCell id="OHqfdX3Yxwpu9wRYlfVo-13" style="rounded=0;orthogonalLoop=1;jettySize=auto;html=1;exitX=1;exitY=1;exitDx=0;exitDy=0;entryX=0;entryY=0;entryDx=0;entryDy=0;endArrow=none;endFill=0;" edge="1" parent="1" source="OHqfdX3Yxwpu9wRYlfVo-5" target="OHqfdX3Yxwpu9wRYlfVo-2">
          <mxGeometry relative="1" as="geometry" />
        </mxCell>
        <mxCell id="OHqfdX3Yxwpu9wRYlfVo-5" value="비밀번호" style="ellipse;whiteSpace=wrap;html=1;aspect=fixed;fontSize=15;" vertex="1" parent="1">
          <mxGeometry x="236" y="110" width="65" height="65" as="geometry" />
        </mxCell>
        <mxCell id="OHqfdX3Yxwpu9wRYlfVo-14" value="" style="edgeStyle=orthogonalEdgeStyle;rounded=0;orthogonalLoop=1;jettySize=auto;html=1;endArrow=none;endFill=0;" edge="1" parent="1" source="OHqfdX3Yxwpu9wRYlfVo-6" target="OHqfdX3Yxwpu9wRYlfVo-2">
          <mxGeometry relative="1" as="geometry" />
        </mxCell>
        <mxCell id="OHqfdX3Yxwpu9wRYlfVo-6" value="가입일" style="ellipse;whiteSpace=wrap;html=1;aspect=fixed;fontSize=15;" vertex="1" parent="1">
          <mxGeometry x="353.5" y="70" width="55" height="55" as="geometry" />
        </mxCell>
        <mxCell id="OHqfdX3Yxwpu9wRYlfVo-11" style="edgeStyle=orthogonalEdgeStyle;rounded=0;orthogonalLoop=1;jettySize=auto;html=1;exitX=0;exitY=0.5;exitDx=0;exitDy=0;entryX=1;entryY=0.5;entryDx=0;entryDy=0;endArrow=none;endFill=0;" edge="1" parent="1" source="OHqfdX3Yxwpu9wRYlfVo-7" target="OHqfdX3Yxwpu9wRYlfVo-2">
          <mxGeometry relative="1" as="geometry" />
        </mxCell>
        <mxCell id="OHqfdX3Yxwpu9wRYlfVo-7" value="이메일" style="ellipse;whiteSpace=wrap;html=1;aspect=fixed;fontSize=15;" vertex="1" parent="1">
          <mxGeometry x="506" y="197.5" width="55" height="55" as="geometry" />
        </mxCell>
        <mxCell id="OHqfdX3Yxwpu9wRYlfVo-12" style="rounded=0;orthogonalLoop=1;jettySize=auto;html=1;exitX=0;exitY=1;exitDx=0;exitDy=0;entryX=1;entryY=0;entryDx=0;entryDy=0;endArrow=none;endFill=0;" edge="1" parent="1" source="OHqfdX3Yxwpu9wRYlfVo-8" target="OHqfdX3Yxwpu9wRYlfVo-2">
          <mxGeometry relative="1" as="geometry" />
        </mxCell>
        <mxCell id="OHqfdX3Yxwpu9wRYlfVo-8" value="전화번호" style="ellipse;whiteSpace=wrap;html=1;aspect=fixed;fontSize=15;" vertex="1" parent="1">
          <mxGeometry x="446" y="110" width="65" height="65" as="geometry" />
        </mxCell>
        <mxCell id="OHqfdX3Yxwpu9wRYlfVo-15" value="&lt;span style=&quot;font-size: 20px;&quot;&gt;게시글&lt;/span&gt;" style="rounded=0;whiteSpace=wrap;html=1;" vertex="1" parent="1">
          <mxGeometry x="606" y="430" width="90" height="90" as="geometry" />
        </mxCell>
        <mxCell id="OHqfdX3Yxwpu9wRYlfVo-18" style="rounded=0;orthogonalLoop=1;jettySize=auto;html=1;endArrow=none;endFill=0;entryX=0.25;entryY=1;entryDx=0;entryDy=0;" edge="1" parent="1" source="OHqfdX3Yxwpu9wRYlfVo-19" target="OHqfdX3Yxwpu9wRYlfVo-15">
          <mxGeometry relative="1" as="geometry">
            <mxPoint x="646" y="510" as="targetPoint" />
          </mxGeometry>
        </mxCell>
        <mxCell id="OHqfdX3Yxwpu9wRYlfVo-19" value="작성일" style="ellipse;whiteSpace=wrap;html=1;aspect=fixed;fontSize=15;" vertex="1" parent="1">
          <mxGeometry x="606" y="600" width="65" height="65" as="geometry" />
        </mxCell>
        <mxCell id="OHqfdX3Yxwpu9wRYlfVo-20" value="" style="rounded=0;orthogonalLoop=1;jettySize=auto;html=1;endArrow=none;endFill=0;entryX=0.75;entryY=1;entryDx=0;entryDy=0;" edge="1" parent="1" source="OHqfdX3Yxwpu9wRYlfVo-21" target="OHqfdX3Yxwpu9wRYlfVo-15">
          <mxGeometry relative="1" as="geometry" />
        </mxCell>
        <mxCell id="OHqfdX3Yxwpu9wRYlfVo-21" value="내용" style="ellipse;whiteSpace=wrap;html=1;aspect=fixed;fontSize=15;" vertex="1" parent="1">
          <mxGeometry x="701" y="600" width="55" height="55" as="geometry" />
        </mxCell>
        <mxCell id="OHqfdX3Yxwpu9wRYlfVo-22" style="edgeStyle=orthogonalEdgeStyle;rounded=0;orthogonalLoop=1;jettySize=auto;html=1;exitX=0;exitY=0.5;exitDx=0;exitDy=0;entryX=1;entryY=0.5;entryDx=0;entryDy=0;endArrow=none;endFill=0;" edge="1" parent="1" source="OHqfdX3Yxwpu9wRYlfVo-23" target="OHqfdX3Yxwpu9wRYlfVo-15">
          <mxGeometry relative="1" as="geometry" />
        </mxCell>
        <mxCell id="OHqfdX3Yxwpu9wRYlfVo-23" value="작성자" style="ellipse;whiteSpace=wrap;html=1;aspect=fixed;fontSize=15;" vertex="1" parent="1">
          <mxGeometry x="786" y="447.5" width="55" height="55" as="geometry" />
        </mxCell>
        <mxCell id="OHqfdX3Yxwpu9wRYlfVo-24" style="rounded=0;orthogonalLoop=1;jettySize=auto;html=1;exitX=0;exitY=1;exitDx=0;exitDy=0;entryX=1;entryY=0;entryDx=0;entryDy=0;endArrow=none;endFill=0;" edge="1" parent="1" source="OHqfdX3Yxwpu9wRYlfVo-25" target="OHqfdX3Yxwpu9wRYlfVo-15">
          <mxGeometry relative="1" as="geometry" />
        </mxCell>
        <mxCell id="OHqfdX3Yxwpu9wRYlfVo-25" value="글번호" style="ellipse;whiteSpace=wrap;html=1;aspect=fixed;fontSize=15;fontStyle=4" vertex="1" parent="1">
          <mxGeometry x="726" y="360" width="65" height="65" as="geometry" />
        </mxCell>
        <mxCell id="OHqfdX3Yxwpu9wRYlfVo-45" style="edgeStyle=orthogonalEdgeStyle;rounded=0;orthogonalLoop=1;jettySize=auto;html=1;exitX=1;exitY=0.5;exitDx=0;exitDy=0;entryX=0;entryY=0.5;entryDx=0;entryDy=0;endArrow=ERone;endFill=0;startArrow=ERzeroToMany;startFill=0;" edge="1" parent="1" source="OHqfdX3Yxwpu9wRYlfVo-27" target="OHqfdX3Yxwpu9wRYlfVo-15">
          <mxGeometry relative="1" as="geometry" />
        </mxCell>
        <mxCell id="OHqfdX3Yxwpu9wRYlfVo-27" value="&lt;span style=&quot;font-size: 20px;&quot;&gt;댓글&lt;/span&gt;" style="rounded=0;whiteSpace=wrap;html=1;" vertex="1" parent="1">
          <mxGeometry x="151" y="430" width="90" height="90" as="geometry" />
        </mxCell>
        <mxCell id="OHqfdX3Yxwpu9wRYlfVo-28" style="rounded=0;orthogonalLoop=1;jettySize=auto;html=1;exitX=1;exitY=0;exitDx=0;exitDy=0;endArrow=none;endFill=0;entryX=0;entryY=1;entryDx=0;entryDy=0;" edge="1" source="OHqfdX3Yxwpu9wRYlfVo-29" target="OHqfdX3Yxwpu9wRYlfVo-27" parent="1">
          <mxGeometry relative="1" as="geometry">
            <mxPoint x="181" y="510" as="targetPoint" />
          </mxGeometry>
        </mxCell>
        <mxCell id="OHqfdX3Yxwpu9wRYlfVo-29" value="작성일" style="ellipse;whiteSpace=wrap;html=1;aspect=fixed;fontSize=15;" vertex="1" parent="1">
          <mxGeometry x="1" y="580" width="65" height="65" as="geometry" />
        </mxCell>
        <mxCell id="OHqfdX3Yxwpu9wRYlfVo-30" value="" style="rounded=0;orthogonalLoop=1;jettySize=auto;html=1;endArrow=none;endFill=0;entryX=0.5;entryY=1;entryDx=0;entryDy=0;" edge="1" source="OHqfdX3Yxwpu9wRYlfVo-31" target="OHqfdX3Yxwpu9wRYlfVo-27" parent="1">
          <mxGeometry relative="1" as="geometry" />
        </mxCell>
        <mxCell id="OHqfdX3Yxwpu9wRYlfVo-31" value="내용" style="ellipse;whiteSpace=wrap;html=1;aspect=fixed;fontSize=15;" vertex="1" parent="1">
          <mxGeometry x="131" y="620" width="55" height="55" as="geometry" />
        </mxCell>
        <mxCell id="OHqfdX3Yxwpu9wRYlfVo-32" style="edgeStyle=orthogonalEdgeStyle;rounded=0;orthogonalLoop=1;jettySize=auto;html=1;exitX=1;exitY=0.5;exitDx=0;exitDy=0;entryX=0;entryY=0.5;entryDx=0;entryDy=0;endArrow=none;endFill=0;" edge="1" source="OHqfdX3Yxwpu9wRYlfVo-33" target="OHqfdX3Yxwpu9wRYlfVo-27" parent="1">
          <mxGeometry relative="1" as="geometry" />
        </mxCell>
        <mxCell id="OHqfdX3Yxwpu9wRYlfVo-33" value="작성자" style="ellipse;whiteSpace=wrap;html=1;aspect=fixed;fontSize=15;" vertex="1" parent="1">
          <mxGeometry x="-9" y="447.5" width="55" height="55" as="geometry" />
        </mxCell>
        <mxCell id="OHqfdX3Yxwpu9wRYlfVo-34" style="rounded=0;orthogonalLoop=1;jettySize=auto;html=1;exitX=1;exitY=0.5;exitDx=0;exitDy=0;entryX=0;entryY=0;entryDx=0;entryDy=0;endArrow=none;endFill=0;" edge="1" source="OHqfdX3Yxwpu9wRYlfVo-35" target="OHqfdX3Yxwpu9wRYlfVo-27" parent="1">
          <mxGeometry relative="1" as="geometry" />
        </mxCell>
        <mxCell id="OHqfdX3Yxwpu9wRYlfVo-35" value="댓글번호" style="ellipse;whiteSpace=wrap;html=1;aspect=fixed;fontSize=15;fontStyle=4" vertex="1" parent="1">
          <mxGeometry x="-14" y="340" width="65" height="65" as="geometry" />
        </mxCell>
        <mxCell id="OHqfdX3Yxwpu9wRYlfVo-38" style="rounded=0;orthogonalLoop=1;jettySize=auto;html=1;exitX=0;exitY=0;exitDx=0;exitDy=0;entryX=1;entryY=1;entryDx=0;entryDy=0;endArrow=none;endFill=0;" edge="1" parent="1" source="OHqfdX3Yxwpu9wRYlfVo-37" target="OHqfdX3Yxwpu9wRYlfVo-15">
          <mxGeometry relative="1" as="geometry" />
        </mxCell>
        <mxCell id="OHqfdX3Yxwpu9wRYlfVo-37" value="제목" style="ellipse;whiteSpace=wrap;html=1;aspect=fixed;fontSize=15;" vertex="1" parent="1">
          <mxGeometry x="771" y="530" width="55" height="55" as="geometry" />
        </mxCell>
        <mxCell id="OHqfdX3Yxwpu9wRYlfVo-42" value="" style="endArrow=ERzeroToMany;html=1;rounded=0;exitX=1;exitY=1;exitDx=0;exitDy=0;entryX=0;entryY=0;entryDx=0;entryDy=0;endFill=0;startArrow=ERone;startFill=0;" edge="1" parent="1" source="OHqfdX3Yxwpu9wRYlfVo-2" target="OHqfdX3Yxwpu9wRYlfVo-15">
          <mxGeometry width="50" height="50" relative="1" as="geometry">
            <mxPoint x="346" y="440" as="sourcePoint" />
            <mxPoint x="396" y="390" as="targetPoint" />
          </mxGeometry>
        </mxCell>
        <mxCell id="OHqfdX3Yxwpu9wRYlfVo-39" value="&lt;font style=&quot;font-size: 18px;&quot;&gt;작성&lt;/font&gt;" style="rhombus;whiteSpace=wrap;html=1;" vertex="1" parent="1">
          <mxGeometry x="476" y="310" width="80" height="80" as="geometry" />
        </mxCell>
        <mxCell id="OHqfdX3Yxwpu9wRYlfVo-43" value="&lt;span style=&quot;font-size: 18px;&quot;&gt;포함&lt;/span&gt;" style="rhombus;whiteSpace=wrap;html=1;" vertex="1" parent="1">
          <mxGeometry x="376" y="435" width="80" height="80" as="geometry" />
        </mxCell>
        <mxCell id="OHqfdX3Yxwpu9wRYlfVo-48" value="&lt;span style=&quot;font-size: 18px;&quot;&gt;작성&lt;/span&gt;" style="rhombus;whiteSpace=wrap;html=1;" vertex="1" parent="1">
          <mxGeometry x="253" y="310" width="80" height="80" as="geometry" />
        </mxCell>
      </root>
    </mxGraphModel>
  </diagram>
</mxfile>
